<mxfile host="app.diagrams.net" modified="2023-05-16T19:26:58.320Z" agent="Mozilla/5.0 (Windows NT 10.0; Win64; x64; rv:109.0) Gecko/20100101 Firefox/113.0" etag="BMHIOzgS98U_7NkIwu9g" version="21.3.2">
  <diagram name="Page-1" id="SPxn6hi4OCkEVqMSbEm8">
    <mxGraphModel dx="762" dy="1628" grid="0" gridSize="10" guides="1" tooltips="1" connect="1" arrows="1" fold="1" page="0" pageScale="1" pageWidth="850" pageHeight="1100" math="0" shadow="0">
      <root>
        <mxCell id="0" />
        <mxCell id="1" parent="0" />
        <mxCell id="2cRfthRtdBLBDPwplw5t-2" value="" style="dashed=1;dashPattern=8 4;endArrow=blockThin;endFill=1;startArrow=oval;startFill=0;endSize=6;startSize=4;html=1;rounded=0;exitX=0.5;exitY=1;exitDx=0;exitDy=0;entryX=0.5;entryY=0;entryDx=0;entryDy=0;labelBackgroundColor=none;strokeColor=#457B9D;fontColor=default;" parent="1" source="2cRfthRtdBLBDPwplw5t-76" target="2cRfthRtdBLBDPwplw5t-45" edge="1">
          <mxGeometry width="160" relative="1" as="geometry">
            <mxPoint x="856" y="848" as="sourcePoint" />
            <mxPoint x="1016" y="848" as="targetPoint" />
            <Array as="points">
              <mxPoint x="985" y="622" />
              <mxPoint x="510" y="622" />
            </Array>
          </mxGeometry>
        </mxCell>
        <mxCell id="2cRfthRtdBLBDPwplw5t-12" value="Mayo Hospital" style="swimlane;html=1;childLayout=stackLayout;resizeParent=1;resizeParentMax=0;horizontal=0;startSize=20;horizontalStack=0;whiteSpace=wrap;labelBackgroundColor=none;fillColor=#A8DADC;strokeColor=#457B9D;fontColor=#1D3557;" parent="1" vertex="1">
          <mxGeometry x="381" y="-135" width="1066" height="743" as="geometry" />
        </mxCell>
        <mxCell id="2cRfthRtdBLBDPwplw5t-13" value="Hospital Staff" style="swimlane;html=1;startSize=20;horizontal=0;labelBackgroundColor=none;fillColor=#A8DADC;strokeColor=#457B9D;fontColor=#1D3557;" parent="2cRfthRtdBLBDPwplw5t-12" vertex="1">
          <mxGeometry x="20" width="1046" height="256" as="geometry" />
        </mxCell>
        <mxCell id="2cRfthRtdBLBDPwplw5t-21" value="Make Physical Record of Patient Visit " style="rounded=1;whiteSpace=wrap;html=1;labelBackgroundColor=none;fillColor=#A8DADC;strokeColor=#457B9D;fontColor=#1D3557;" parent="2cRfthRtdBLBDPwplw5t-13" vertex="1">
          <mxGeometry x="159" y="48" width="120" height="60" as="geometry" />
        </mxCell>
        <mxCell id="2cRfthRtdBLBDPwplw5t-22" value="" style="shape=mxgraph.bpmn.data;labelPosition=center;verticalLabelPosition=bottom;align=center;verticalAlign=top;size=15;html=1;labelBackgroundColor=none;fillColor=#A8DADC;strokeColor=#457B9D;fontColor=#1D3557;" parent="2cRfthRtdBLBDPwplw5t-13" vertex="1">
          <mxGeometry x="57" y="39" width="56" height="65" as="geometry" />
        </mxCell>
        <mxCell id="2cRfthRtdBLBDPwplw5t-24" value="&lt;div&gt;Patient&lt;/div&gt;&lt;div&gt;Data&lt;/div&gt;" style="text;html=1;align=center;verticalAlign=middle;resizable=0;points=[];autosize=1;strokeColor=none;fillColor=none;labelBackgroundColor=none;fontColor=#1D3557;" parent="2cRfthRtdBLBDPwplw5t-13" vertex="1">
          <mxGeometry x="58" y="56" width="55" height="41" as="geometry" />
        </mxCell>
        <mxCell id="2cRfthRtdBLBDPwplw5t-26" value="" style="edgeStyle=elbowEdgeStyle;fontSize=12;html=1;endFill=0;startFill=0;endSize=6;startSize=6;dashed=1;dashPattern=1 4;endArrow=openThin;startArrow=none;rounded=0;entryX=0;entryY=0.5;entryDx=0;entryDy=0;exitX=0;exitY=0;exitDx=56;exitDy=40;exitPerimeter=0;labelBackgroundColor=none;strokeColor=#457B9D;fontColor=default;" parent="2cRfthRtdBLBDPwplw5t-13" source="2cRfthRtdBLBDPwplw5t-22" target="2cRfthRtdBLBDPwplw5t-21" edge="1">
          <mxGeometry width="160" relative="1" as="geometry">
            <mxPoint x="107" y="69" as="sourcePoint" />
            <mxPoint x="592" y="-31" as="targetPoint" />
            <Array as="points">
              <mxPoint x="127" y="58" />
            </Array>
          </mxGeometry>
        </mxCell>
        <mxCell id="2cRfthRtdBLBDPwplw5t-42" value="" style="edgeStyle=orthogonalEdgeStyle;rounded=0;orthogonalLoop=1;jettySize=auto;html=1;labelBackgroundColor=none;strokeColor=#457B9D;fontColor=default;" parent="2cRfthRtdBLBDPwplw5t-13" source="2cRfthRtdBLBDPwplw5t-33" target="2cRfthRtdBLBDPwplw5t-41" edge="1">
          <mxGeometry relative="1" as="geometry" />
        </mxCell>
        <mxCell id="2cRfthRtdBLBDPwplw5t-33" value="Document Treatments" style="rounded=1;whiteSpace=wrap;html=1;labelBackgroundColor=none;fillColor=#A8DADC;strokeColor=#457B9D;fontColor=#1D3557;" parent="2cRfthRtdBLBDPwplw5t-13" vertex="1">
          <mxGeometry x="337" y="48" width="120" height="60" as="geometry" />
        </mxCell>
        <mxCell id="2cRfthRtdBLBDPwplw5t-41" value="Segregate Machine Based Diagnostic Treatments" style="whiteSpace=wrap;html=1;rounded=1;labelBackgroundColor=none;fillColor=#A8DADC;strokeColor=#457B9D;fontColor=#1D3557;" parent="2cRfthRtdBLBDPwplw5t-13" vertex="1">
          <mxGeometry x="337" y="161" width="120" height="60" as="geometry" />
        </mxCell>
        <mxCell id="2cRfthRtdBLBDPwplw5t-29" value="Medical Personnel" style="swimlane;startSize=20;horizontal=0;html=1;whiteSpace=wrap;labelBackgroundColor=none;fillColor=#A8DADC;strokeColor=#457B9D;fontColor=#1D3557;" parent="2cRfthRtdBLBDPwplw5t-12" vertex="1">
          <mxGeometry x="20" y="256" width="1046" height="155" as="geometry" />
        </mxCell>
        <mxCell id="2cRfthRtdBLBDPwplw5t-30" value="Treat Patient" style="rounded=1;whiteSpace=wrap;html=1;labelBackgroundColor=none;fillColor=#A8DADC;strokeColor=#457B9D;fontColor=#1D3557;" parent="2cRfthRtdBLBDPwplw5t-29" vertex="1">
          <mxGeometry x="158" y="41" width="120" height="60" as="geometry" />
        </mxCell>
        <mxCell id="2cRfthRtdBLBDPwplw5t-31" style="edgeStyle=orthogonalEdgeStyle;rounded=0;orthogonalLoop=1;jettySize=auto;html=1;exitX=0.5;exitY=1;exitDx=0;exitDy=0;labelBackgroundColor=none;strokeColor=#457B9D;fontColor=default;" parent="2cRfthRtdBLBDPwplw5t-12" source="2cRfthRtdBLBDPwplw5t-21" target="2cRfthRtdBLBDPwplw5t-30" edge="1">
          <mxGeometry relative="1" as="geometry" />
        </mxCell>
        <mxCell id="2cRfthRtdBLBDPwplw5t-34" style="edgeStyle=orthogonalEdgeStyle;rounded=0;orthogonalLoop=1;jettySize=auto;html=1;entryX=0;entryY=0.5;entryDx=0;entryDy=0;labelBackgroundColor=none;strokeColor=#457B9D;fontColor=default;" parent="2cRfthRtdBLBDPwplw5t-12" source="2cRfthRtdBLBDPwplw5t-30" target="2cRfthRtdBLBDPwplw5t-33" edge="1">
          <mxGeometry relative="1" as="geometry" />
        </mxCell>
        <mxCell id="2cRfthRtdBLBDPwplw5t-36" style="edgeStyle=orthogonalEdgeStyle;rounded=0;orthogonalLoop=1;jettySize=auto;html=1;exitX=0.5;exitY=1;exitDx=0;exitDy=0;entryX=0;entryY=0.5;entryDx=0;entryDy=0;labelBackgroundColor=none;strokeColor=#457B9D;fontColor=default;" parent="2cRfthRtdBLBDPwplw5t-12" source="2cRfthRtdBLBDPwplw5t-41" target="2cRfthRtdBLBDPwplw5t-35" edge="1">
          <mxGeometry relative="1" as="geometry">
            <Array as="points">
              <mxPoint x="417" y="431" />
              <mxPoint x="153" y="431" />
              <mxPoint x="153" y="493" />
            </Array>
          </mxGeometry>
        </mxCell>
        <mxCell id="2cRfthRtdBLBDPwplw5t-14" value="Administrative Department" style="swimlane;html=1;startSize=20;horizontal=0;labelBackgroundColor=none;fillColor=#A8DADC;strokeColor=#457B9D;fontColor=#1D3557;" parent="2cRfthRtdBLBDPwplw5t-12" vertex="1">
          <mxGeometry x="20" y="411" width="1046" height="332" as="geometry" />
        </mxCell>
        <mxCell id="2cRfthRtdBLBDPwplw5t-47" value="" style="edgeStyle=orthogonalEdgeStyle;rounded=0;orthogonalLoop=1;jettySize=auto;html=1;labelBackgroundColor=none;strokeColor=#457B9D;fontColor=default;" parent="2cRfthRtdBLBDPwplw5t-14" source="2cRfthRtdBLBDPwplw5t-35" target="2cRfthRtdBLBDPwplw5t-46" edge="1">
          <mxGeometry relative="1" as="geometry" />
        </mxCell>
        <mxCell id="2cRfthRtdBLBDPwplw5t-35" value="Calculate Service Cost" style="rounded=1;whiteSpace=wrap;html=1;labelBackgroundColor=none;fillColor=#A8DADC;strokeColor=#457B9D;fontColor=#1D3557;" parent="2cRfthRtdBLBDPwplw5t-14" vertex="1">
          <mxGeometry x="153" y="52" width="120" height="60" as="geometry" />
        </mxCell>
        <mxCell id="2cRfthRtdBLBDPwplw5t-37" value="" style="shape=mxgraph.bpmn.data;labelPosition=center;verticalLabelPosition=bottom;align=center;verticalAlign=top;size=15;html=1;labelBackgroundColor=none;fillColor=#A8DADC;strokeColor=#457B9D;fontColor=#1D3557;" parent="2cRfthRtdBLBDPwplw5t-14" vertex="1">
          <mxGeometry x="51" y="126" width="64" height="65" as="geometry" />
        </mxCell>
        <mxCell id="2cRfthRtdBLBDPwplw5t-38" value="&lt;div&gt;Treatment &lt;br&gt;&lt;/div&gt;&lt;div&gt;Docs&lt;/div&gt;" style="text;html=1;align=center;verticalAlign=middle;resizable=0;points=[];autosize=1;strokeColor=none;fillColor=none;labelBackgroundColor=none;fontColor=#1D3557;" parent="2cRfthRtdBLBDPwplw5t-14" vertex="1">
          <mxGeometry x="45" y="143" width="72" height="41" as="geometry" />
        </mxCell>
        <mxCell id="2cRfthRtdBLBDPwplw5t-39" value="" style="edgeStyle=elbowEdgeStyle;fontSize=12;html=1;endFill=0;startFill=0;endSize=6;startSize=6;dashed=1;dashPattern=1 4;endArrow=openThin;startArrow=none;rounded=0;entryX=0.25;entryY=1;entryDx=0;entryDy=0;labelBackgroundColor=none;strokeColor=#457B9D;fontColor=default;" parent="2cRfthRtdBLBDPwplw5t-14" target="2cRfthRtdBLBDPwplw5t-35" edge="1">
          <mxGeometry width="160" relative="1" as="geometry">
            <mxPoint x="118" y="166" as="sourcePoint" />
            <mxPoint x="221.00000000000023" y="129" as="targetPoint" />
            <Array as="points">
              <mxPoint x="183" y="149" />
            </Array>
          </mxGeometry>
        </mxCell>
        <mxCell id="2cRfthRtdBLBDPwplw5t-55" value="" style="edgeStyle=orthogonalEdgeStyle;rounded=0;orthogonalLoop=1;jettySize=auto;html=1;labelBackgroundColor=none;strokeColor=#457B9D;fontColor=default;" parent="2cRfthRtdBLBDPwplw5t-14" source="2cRfthRtdBLBDPwplw5t-46" target="2cRfthRtdBLBDPwplw5t-54" edge="1">
          <mxGeometry relative="1" as="geometry" />
        </mxCell>
        <mxCell id="2cRfthRtdBLBDPwplw5t-46" value="Generate Bill" style="rounded=1;whiteSpace=wrap;html=1;labelBackgroundColor=none;fillColor=#A8DADC;strokeColor=#457B9D;fontColor=#1D3557;" parent="2cRfthRtdBLBDPwplw5t-14" vertex="1">
          <mxGeometry x="353" y="52" width="120" height="60" as="geometry" />
        </mxCell>
        <mxCell id="2cRfthRtdBLBDPwplw5t-54" value="Determine if Patient Can Pay Bill" style="whiteSpace=wrap;html=1;rounded=1;labelBackgroundColor=none;fillColor=#A8DADC;strokeColor=#457B9D;fontColor=#1D3557;" parent="2cRfthRtdBLBDPwplw5t-14" vertex="1">
          <mxGeometry x="353" y="192" width="120" height="60" as="geometry" />
        </mxCell>
        <mxCell id="2cRfthRtdBLBDPwplw5t-75" style="edgeStyle=orthogonalEdgeStyle;rounded=0;orthogonalLoop=1;jettySize=auto;html=1;exitX=0.5;exitY=1;exitDx=0;exitDy=0;entryX=0.5;entryY=0;entryDx=0;entryDy=0;entryPerimeter=0;labelBackgroundColor=none;strokeColor=#457B9D;fontColor=default;" parent="2cRfthRtdBLBDPwplw5t-14" source="2cRfthRtdBLBDPwplw5t-50" target="2cRfthRtdBLBDPwplw5t-73" edge="1">
          <mxGeometry relative="1" as="geometry" />
        </mxCell>
        <mxCell id="2cRfthRtdBLBDPwplw5t-50" value="Suggest Services of SaySahoolat" style="rounded=1;whiteSpace=wrap;html=1;labelBackgroundColor=none;fillColor=#A8DADC;strokeColor=#457B9D;fontColor=#1D3557;" parent="2cRfthRtdBLBDPwplw5t-14" vertex="1">
          <mxGeometry x="524" y="49" width="120" height="60" as="geometry" />
        </mxCell>
        <mxCell id="2cRfthRtdBLBDPwplw5t-77" style="edgeStyle=orthogonalEdgeStyle;rounded=0;orthogonalLoop=1;jettySize=auto;html=1;exitX=0.5;exitY=1;exitDx=0;exitDy=0;exitPerimeter=0;entryX=0.5;entryY=0;entryDx=0;entryDy=0;labelBackgroundColor=none;strokeColor=#457B9D;fontColor=default;" parent="2cRfthRtdBLBDPwplw5t-14" source="2cRfthRtdBLBDPwplw5t-73" target="2cRfthRtdBLBDPwplw5t-76" edge="1">
          <mxGeometry relative="1" as="geometry" />
        </mxCell>
        <mxCell id="2cRfthRtdBLBDPwplw5t-73" value="" style="points=[[0.25,0.25,0],[0.5,0,0],[0.75,0.25,0],[1,0.5,0],[0.75,0.75,0],[0.5,1,0],[0.25,0.75,0],[0,0.5,0]];shape=mxgraph.bpmn.gateway2;html=1;verticalLabelPosition=bottom;labelBackgroundColor=none;verticalAlign=top;align=center;perimeter=rhombusPerimeter;outlineConnect=0;outline=end;symbol=general;fillColor=#A8DADC;strokeColor=#457B9D;fontColor=#1D3557;" parent="2cRfthRtdBLBDPwplw5t-14" vertex="1">
          <mxGeometry x="559" y="141" width="50" height="50" as="geometry" />
        </mxCell>
        <mxCell id="2cRfthRtdBLBDPwplw5t-76" value="Reach out to SaySahoolat on behalf of patient" style="rounded=1;whiteSpace=wrap;html=1;labelBackgroundColor=none;fillColor=#A8DADC;strokeColor=#457B9D;fontColor=#1D3557;" parent="2cRfthRtdBLBDPwplw5t-14" vertex="1">
          <mxGeometry x="524" y="214" width="120" height="60" as="geometry" />
        </mxCell>
        <mxCell id="Uh9OHrEfA908JJHHaxpG-2" value="" style="shape=datastore;whiteSpace=wrap;html=1;" vertex="1" parent="2cRfthRtdBLBDPwplw5t-14">
          <mxGeometry x="134" y="219" width="158" height="87" as="geometry" />
        </mxCell>
        <mxCell id="Uh9OHrEfA908JJHHaxpG-4" value="Inventory System" style="text;html=1;align=center;verticalAlign=middle;resizable=0;points=[];autosize=1;strokeColor=none;fillColor=none;" vertex="1" parent="2cRfthRtdBLBDPwplw5t-14">
          <mxGeometry x="157.5" y="260" width="111" height="26" as="geometry" />
        </mxCell>
        <mxCell id="Uh9OHrEfA908JJHHaxpG-5" value="" style="dashed=1;dashPattern=8 4;endArrow=blockThin;endFill=1;startArrow=oval;startFill=0;endSize=6;startSize=4;html=1;rounded=0;exitX=0.25;exitY=1;exitDx=0;exitDy=0;labelBackgroundColor=none;strokeColor=#457B9D;fontColor=default;entryX=0.85;entryY=0.05;entryDx=0;entryDy=0;entryPerimeter=0;" edge="1" parent="2cRfthRtdBLBDPwplw5t-14" source="2cRfthRtdBLBDPwplw5t-46" target="Uh9OHrEfA908JJHHaxpG-2">
          <mxGeometry width="160" relative="1" as="geometry">
            <mxPoint x="229" y="-581" as="sourcePoint" />
            <mxPoint x="229" y="-353" as="targetPoint" />
            <Array as="points">
              <mxPoint x="383" y="151" />
              <mxPoint x="268" y="151" />
            </Array>
          </mxGeometry>
        </mxCell>
        <mxCell id="Uh9OHrEfA908JJHHaxpG-6" value="" style="dashed=1;dashPattern=8 4;endArrow=blockThin;endFill=1;startArrow=oval;startFill=0;endSize=6;startSize=4;html=1;rounded=0;exitX=0.5;exitY=1;exitDx=0;exitDy=0;labelBackgroundColor=none;strokeColor=#457B9D;fontColor=default;entryX=0.5;entryY=0;entryDx=0;entryDy=0;" edge="1" parent="2cRfthRtdBLBDPwplw5t-14" source="2cRfthRtdBLBDPwplw5t-35" target="Uh9OHrEfA908JJHHaxpG-2">
          <mxGeometry width="160" relative="1" as="geometry">
            <mxPoint x="393" y="122" as="sourcePoint" />
            <mxPoint x="268" y="233" as="targetPoint" />
            <Array as="points">
              <mxPoint x="213" y="168" />
            </Array>
          </mxGeometry>
        </mxCell>
        <mxCell id="2cRfthRtdBLBDPwplw5t-17" value="Patient" style="swimlane;startSize=20;horizontal=0;html=1;whiteSpace=wrap;labelBackgroundColor=none;fillColor=#A8DADC;strokeColor=#457B9D;fontColor=#1D3557;" parent="1" vertex="1">
          <mxGeometry x="382" y="-405" width="1064" height="244" as="geometry" />
        </mxCell>
        <mxCell id="2cRfthRtdBLBDPwplw5t-20" value="" style="edgeStyle=orthogonalEdgeStyle;rounded=0;orthogonalLoop=1;jettySize=auto;html=1;labelBackgroundColor=none;strokeColor=#457B9D;fontColor=default;" parent="2cRfthRtdBLBDPwplw5t-17" source="2cRfthRtdBLBDPwplw5t-5" target="2cRfthRtdBLBDPwplw5t-19" edge="1">
          <mxGeometry relative="1" as="geometry" />
        </mxCell>
        <mxCell id="2cRfthRtdBLBDPwplw5t-5" value="" style="points=[[0.145,0.145,0],[0.5,0,0],[0.855,0.145,0],[1,0.5,0],[0.855,0.855,0],[0.5,1,0],[0.145,0.855,0],[0,0.5,0]];shape=mxgraph.bpmn.event;html=1;verticalLabelPosition=bottom;labelBackgroundColor=none;verticalAlign=top;align=center;perimeter=ellipsePerimeter;outlineConnect=0;aspect=fixed;outline=standard;symbol=general;fillColor=#A8DADC;strokeColor=#457B9D;fontColor=#1D3557;" parent="2cRfthRtdBLBDPwplw5t-17" vertex="1">
          <mxGeometry x="60" y="35" width="50" height="50" as="geometry" />
        </mxCell>
        <mxCell id="2cRfthRtdBLBDPwplw5t-19" value="Visit Hospital" style="rounded=1;whiteSpace=wrap;html=1;labelBackgroundColor=none;fillColor=#A8DADC;strokeColor=#457B9D;fontColor=#1D3557;" parent="2cRfthRtdBLBDPwplw5t-17" vertex="1">
          <mxGeometry x="178" y="30" width="120" height="60" as="geometry" />
        </mxCell>
        <mxCell id="2cRfthRtdBLBDPwplw5t-79" value="" style="edgeStyle=orthogonalEdgeStyle;rounded=0;orthogonalLoop=1;jettySize=auto;html=1;labelBackgroundColor=none;strokeColor=#457B9D;fontColor=default;" parent="2cRfthRtdBLBDPwplw5t-17" source="2cRfthRtdBLBDPwplw5t-43" target="2cRfthRtdBLBDPwplw5t-78" edge="1">
          <mxGeometry relative="1" as="geometry" />
        </mxCell>
        <mxCell id="2cRfthRtdBLBDPwplw5t-43" value="Pay Medical Bill" style="rounded=1;whiteSpace=wrap;html=1;labelBackgroundColor=none;fillColor=#A8DADC;strokeColor=#457B9D;fontColor=#1D3557;" parent="2cRfthRtdBLBDPwplw5t-17" vertex="1">
          <mxGeometry x="656" y="30" width="120" height="60" as="geometry" />
        </mxCell>
        <mxCell id="2cRfthRtdBLBDPwplw5t-49" style="edgeStyle=orthogonalEdgeStyle;rounded=0;orthogonalLoop=1;jettySize=auto;html=1;exitX=0.5;exitY=0;exitDx=0;exitDy=0;exitPerimeter=0;entryX=0;entryY=0.5;entryDx=0;entryDy=0;labelBackgroundColor=none;strokeColor=#457B9D;fontColor=default;" parent="2cRfthRtdBLBDPwplw5t-17" source="2cRfthRtdBLBDPwplw5t-48" target="2cRfthRtdBLBDPwplw5t-43" edge="1">
          <mxGeometry relative="1" as="geometry" />
        </mxCell>
        <mxCell id="2cRfthRtdBLBDPwplw5t-48" value="" style="points=[[0.25,0.25,0],[0.5,0,0],[0.75,0.25,0],[1,0.5,0],[0.75,0.75,0],[0.5,1,0],[0.25,0.75,0],[0,0.5,0]];shape=mxgraph.bpmn.gateway2;html=1;verticalLabelPosition=bottom;labelBackgroundColor=none;verticalAlign=top;align=center;perimeter=rhombusPerimeter;outlineConnect=0;outline=none;symbol=none;gwType=exclusive;fillColor=#A8DADC;strokeColor=#457B9D;fontColor=#1D3557;" parent="2cRfthRtdBLBDPwplw5t-17" vertex="1">
          <mxGeometry x="548" y="85" width="50" height="50" as="geometry" />
        </mxCell>
        <mxCell id="2cRfthRtdBLBDPwplw5t-68" value="Reach out to SaySahoolat Foundation" style="rounded=1;whiteSpace=wrap;html=1;labelBackgroundColor=none;fillColor=#A8DADC;strokeColor=#457B9D;fontColor=#1D3557;" parent="2cRfthRtdBLBDPwplw5t-17" vertex="1">
          <mxGeometry x="656" y="138" width="120" height="60" as="geometry" />
        </mxCell>
        <mxCell id="2cRfthRtdBLBDPwplw5t-78" value="" style="points=[[0.145,0.145,0],[0.5,0,0],[0.855,0.145,0],[1,0.5,0],[0.855,0.855,0],[0.5,1,0],[0.145,0.855,0],[0,0.5,0]];shape=mxgraph.bpmn.event;html=1;verticalLabelPosition=bottom;labelBackgroundColor=none;verticalAlign=top;align=center;perimeter=ellipsePerimeter;outlineConnect=0;aspect=fixed;outline=end;symbol=terminate2;fillColor=#A8DADC;strokeColor=#457B9D;fontColor=#1D3557;" parent="2cRfthRtdBLBDPwplw5t-17" vertex="1">
          <mxGeometry x="859" y="35" width="50" height="50" as="geometry" />
        </mxCell>
        <mxCell id="2cRfthRtdBLBDPwplw5t-56" value="Yes" style="text;html=1;align=center;verticalAlign=middle;resizable=0;points=[];autosize=1;strokeColor=none;fillColor=none;labelBackgroundColor=none;fontColor=#1D3557;" parent="2cRfthRtdBLBDPwplw5t-17" vertex="1">
          <mxGeometry x="576" y="30" width="38" height="26" as="geometry" />
        </mxCell>
        <mxCell id="2cRfthRtdBLBDPwplw5t-57" value="No" style="text;html=1;align=center;verticalAlign=middle;resizable=0;points=[];autosize=1;strokeColor=none;fillColor=none;labelBackgroundColor=none;fontColor=#1D3557;" parent="2cRfthRtdBLBDPwplw5t-17" vertex="1">
          <mxGeometry x="578.5" y="138" width="33" height="26" as="geometry" />
        </mxCell>
        <mxCell id="2cRfthRtdBLBDPwplw5t-28" value="" style="dashed=1;dashPattern=8 4;endArrow=blockThin;endFill=1;startArrow=oval;startFill=0;endSize=6;startSize=4;html=1;rounded=0;exitX=0.5;exitY=1;exitDx=0;exitDy=0;labelBackgroundColor=none;strokeColor=#457B9D;fontColor=default;" parent="1" source="2cRfthRtdBLBDPwplw5t-19" target="2cRfthRtdBLBDPwplw5t-21" edge="1">
          <mxGeometry width="160" relative="1" as="geometry">
            <mxPoint x="574" y="-294" as="sourcePoint" />
            <mxPoint x="734" y="-294" as="targetPoint" />
          </mxGeometry>
        </mxCell>
        <mxCell id="2cRfthRtdBLBDPwplw5t-32" value="SaySahoolat Foundation" style="swimlane;startSize=20;horizontal=0;html=1;whiteSpace=wrap;labelBackgroundColor=none;fillColor=#A8DADC;strokeColor=#457B9D;fontColor=#1D3557;" parent="1" vertex="1">
          <mxGeometry x="379" y="654" width="1066" height="276" as="geometry" />
        </mxCell>
        <mxCell id="2cRfthRtdBLBDPwplw5t-81" value="" style="edgeStyle=orthogonalEdgeStyle;rounded=0;orthogonalLoop=1;jettySize=auto;html=1;labelBackgroundColor=none;strokeColor=#457B9D;fontColor=default;" parent="2cRfthRtdBLBDPwplw5t-32" source="2cRfthRtdBLBDPwplw5t-88" target="2cRfthRtdBLBDPwplw5t-80" edge="1">
          <mxGeometry relative="1" as="geometry" />
        </mxCell>
        <mxCell id="2cRfthRtdBLBDPwplw5t-45" value="Check Patient SaySahoolat Account" style="rounded=1;whiteSpace=wrap;html=1;labelBackgroundColor=none;fillColor=#A8DADC;strokeColor=#457B9D;fontColor=#1D3557;" parent="2cRfthRtdBLBDPwplw5t-32" vertex="1">
          <mxGeometry x="71" y="51" width="120" height="60" as="geometry" />
        </mxCell>
        <mxCell id="2cRfthRtdBLBDPwplw5t-86" value="" style="edgeStyle=orthogonalEdgeStyle;rounded=0;orthogonalLoop=1;jettySize=auto;html=1;labelBackgroundColor=none;strokeColor=#457B9D;fontColor=default;" parent="2cRfthRtdBLBDPwplw5t-32" source="2cRfthRtdBLBDPwplw5t-80" target="2cRfthRtdBLBDPwplw5t-85" edge="1">
          <mxGeometry relative="1" as="geometry" />
        </mxCell>
        <mxCell id="2cRfthRtdBLBDPwplw5t-80" value="Deduct Medical Cost from Total Charity Funds Allotted into Patient&#39;s Account" style="rounded=1;whiteSpace=wrap;html=1;labelBackgroundColor=none;fillColor=#A8DADC;strokeColor=#457B9D;fontColor=#1D3557;" parent="2cRfthRtdBLBDPwplw5t-32" vertex="1">
          <mxGeometry x="409" y="51" width="120" height="60" as="geometry" />
        </mxCell>
        <mxCell id="2cRfthRtdBLBDPwplw5t-99" value="" style="edgeStyle=orthogonalEdgeStyle;rounded=0;orthogonalLoop=1;jettySize=auto;html=1;labelBackgroundColor=none;strokeColor=#457B9D;fontColor=default;" parent="2cRfthRtdBLBDPwplw5t-32" source="2cRfthRtdBLBDPwplw5t-85" target="2cRfthRtdBLBDPwplw5t-98" edge="1">
          <mxGeometry relative="1" as="geometry" />
        </mxCell>
        <mxCell id="2cRfthRtdBLBDPwplw5t-85" value="Pay Medical Bill" style="rounded=1;whiteSpace=wrap;html=1;labelBackgroundColor=none;fillColor=#A8DADC;strokeColor=#457B9D;fontColor=#1D3557;" parent="2cRfthRtdBLBDPwplw5t-32" vertex="1">
          <mxGeometry x="609" y="51" width="120" height="60" as="geometry" />
        </mxCell>
        <mxCell id="2cRfthRtdBLBDPwplw5t-93" value="" style="edgeStyle=orthogonalEdgeStyle;rounded=0;orthogonalLoop=1;jettySize=auto;html=1;labelBackgroundColor=none;strokeColor=#457B9D;fontColor=default;" parent="2cRfthRtdBLBDPwplw5t-32" source="2cRfthRtdBLBDPwplw5t-88" target="2cRfthRtdBLBDPwplw5t-92" edge="1">
          <mxGeometry relative="1" as="geometry" />
        </mxCell>
        <mxCell id="2cRfthRtdBLBDPwplw5t-88" value="" style="points=[[0.25,0.25,0],[0.5,0,0],[0.75,0.25,0],[1,0.5,0],[0.75,0.75,0],[0.5,1,0],[0.25,0.75,0],[0,0.5,0]];shape=mxgraph.bpmn.gateway2;html=1;verticalLabelPosition=bottom;labelBackgroundColor=none;verticalAlign=top;align=center;perimeter=rhombusPerimeter;outlineConnect=0;outline=none;symbol=none;gwType=exclusive;fillColor=#A8DADC;strokeColor=#457B9D;fontColor=#1D3557;" parent="2cRfthRtdBLBDPwplw5t-32" vertex="1">
          <mxGeometry x="269" y="56" width="50" height="50" as="geometry" />
        </mxCell>
        <mxCell id="2cRfthRtdBLBDPwplw5t-89" value="" style="edgeStyle=orthogonalEdgeStyle;rounded=0;orthogonalLoop=1;jettySize=auto;html=1;labelBackgroundColor=none;strokeColor=#457B9D;fontColor=default;" parent="2cRfthRtdBLBDPwplw5t-32" source="2cRfthRtdBLBDPwplw5t-45" target="2cRfthRtdBLBDPwplw5t-88" edge="1">
          <mxGeometry relative="1" as="geometry">
            <mxPoint x="572" y="957" as="sourcePoint" />
            <mxPoint x="855" y="957" as="targetPoint" />
          </mxGeometry>
        </mxCell>
        <mxCell id="2cRfthRtdBLBDPwplw5t-94" style="edgeStyle=orthogonalEdgeStyle;rounded=0;orthogonalLoop=1;jettySize=auto;html=1;exitX=1;exitY=0.5;exitDx=0;exitDy=0;entryX=0.5;entryY=1;entryDx=0;entryDy=0;labelBackgroundColor=none;strokeColor=#457B9D;fontColor=default;" parent="2cRfthRtdBLBDPwplw5t-32" source="2cRfthRtdBLBDPwplw5t-92" target="2cRfthRtdBLBDPwplw5t-80" edge="1">
          <mxGeometry relative="1" as="geometry" />
        </mxCell>
        <mxCell id="2cRfthRtdBLBDPwplw5t-92" value="Create Patient Account" style="rounded=1;whiteSpace=wrap;html=1;labelBackgroundColor=none;fillColor=#A8DADC;strokeColor=#457B9D;fontColor=#1D3557;" parent="2cRfthRtdBLBDPwplw5t-32" vertex="1">
          <mxGeometry x="234" y="161" width="120" height="60" as="geometry" />
        </mxCell>
        <mxCell id="2cRfthRtdBLBDPwplw5t-95" value="Has Account" style="text;html=1;align=center;verticalAlign=middle;resizable=0;points=[];autosize=1;strokeColor=none;fillColor=none;labelBackgroundColor=none;fontColor=#1D3557;" parent="2cRfthRtdBLBDPwplw5t-32" vertex="1">
          <mxGeometry x="300" y="51" width="86" height="26" as="geometry" />
        </mxCell>
        <mxCell id="2cRfthRtdBLBDPwplw5t-96" value="&lt;div&gt;Does Not &lt;br&gt;&lt;/div&gt;&lt;div&gt;have Account&lt;/div&gt;" style="text;html=1;align=center;verticalAlign=middle;resizable=0;points=[];autosize=1;strokeColor=none;fillColor=none;labelBackgroundColor=none;fontColor=#1D3557;" parent="2cRfthRtdBLBDPwplw5t-32" vertex="1">
          <mxGeometry x="209" y="98" width="91" height="41" as="geometry" />
        </mxCell>
        <mxCell id="2cRfthRtdBLBDPwplw5t-98" value="" style="points=[[0.145,0.145,0],[0.5,0,0],[0.855,0.145,0],[1,0.5,0],[0.855,0.855,0],[0.5,1,0],[0.145,0.855,0],[0,0.5,0]];shape=mxgraph.bpmn.event;html=1;verticalLabelPosition=bottom;labelBackgroundColor=none;verticalAlign=top;align=center;perimeter=ellipsePerimeter;outlineConnect=0;aspect=fixed;outline=end;symbol=terminate2;fillColor=#A8DADC;strokeColor=#457B9D;fontColor=#1D3557;" parent="2cRfthRtdBLBDPwplw5t-32" vertex="1">
          <mxGeometry x="815" y="56" width="50" height="50" as="geometry" />
        </mxCell>
        <mxCell id="2cRfthRtdBLBDPwplw5t-53" value="" style="dashed=1;dashPattern=8 4;endArrow=blockThin;endFill=1;startArrow=oval;startFill=0;endSize=6;startSize=4;html=1;rounded=0;exitX=1;exitY=0.5;exitDx=0;exitDy=0;entryX=0;entryY=0.5;entryDx=0;entryDy=0;entryPerimeter=0;labelBackgroundColor=none;strokeColor=#457B9D;fontColor=default;" parent="1" source="2cRfthRtdBLBDPwplw5t-54" target="2cRfthRtdBLBDPwplw5t-48" edge="1">
          <mxGeometry width="160" relative="1" as="geometry">
            <mxPoint x="955" y="552" as="sourcePoint" />
            <mxPoint x="955" y="829" as="targetPoint" />
            <Array as="points">
              <mxPoint x="897" y="498" />
              <mxPoint x="897" y="-295" />
            </Array>
          </mxGeometry>
        </mxCell>
        <mxCell id="2cRfthRtdBLBDPwplw5t-70" value="" style="dashed=1;dashPattern=8 4;endArrow=blockThin;endFill=1;startArrow=oval;startFill=0;endSize=6;startSize=4;html=1;rounded=0;exitX=0.5;exitY=1;exitDx=0;exitDy=0;exitPerimeter=0;entryX=0.25;entryY=0;entryDx=0;entryDy=0;labelBackgroundColor=none;strokeColor=#457B9D;fontColor=default;" parent="1" source="2cRfthRtdBLBDPwplw5t-48" target="2cRfthRtdBLBDPwplw5t-50" edge="1">
          <mxGeometry width="160" relative="1" as="geometry">
            <mxPoint x="988" y="216" as="sourcePoint" />
            <mxPoint x="959" y="465" as="targetPoint" />
            <Array as="points" />
          </mxGeometry>
        </mxCell>
        <mxCell id="2cRfthRtdBLBDPwplw5t-72" value="" style="dashed=1;dashPattern=8 4;endArrow=blockThin;endFill=1;startArrow=oval;startFill=0;endSize=6;startSize=4;html=1;rounded=0;exitX=1;exitY=0.5;exitDx=0;exitDy=0;entryX=0.25;entryY=1;entryDx=0;entryDy=0;exitPerimeter=0;labelBackgroundColor=none;strokeColor=#457B9D;fontColor=default;" parent="1" source="2cRfthRtdBLBDPwplw5t-73" target="2cRfthRtdBLBDPwplw5t-68" edge="1">
          <mxGeometry width="160" relative="1" as="geometry">
            <mxPoint x="1065" y="1231" as="sourcePoint" />
            <mxPoint x="1065" y="380" as="targetPoint" />
            <Array as="points">
              <mxPoint x="1068" y="442" />
            </Array>
          </mxGeometry>
        </mxCell>
        <mxCell id="2cRfthRtdBLBDPwplw5t-87" value="" style="dashed=1;dashPattern=8 4;endArrow=blockThin;endFill=1;startArrow=oval;startFill=0;endSize=6;startSize=4;html=1;rounded=0;exitX=0.75;exitY=1;exitDx=0;exitDy=0;entryX=0.75;entryY=0;entryDx=0;entryDy=0;labelBackgroundColor=none;strokeColor=#457B9D;fontColor=default;" parent="1" source="2cRfthRtdBLBDPwplw5t-68" target="2cRfthRtdBLBDPwplw5t-45" edge="1">
          <mxGeometry width="160" relative="1" as="geometry">
            <mxPoint x="1197" y="682" as="sourcePoint" />
            <mxPoint x="724" y="852" as="targetPoint" />
            <Array as="points">
              <mxPoint x="1128" y="638" />
              <mxPoint x="540" y="638" />
            </Array>
          </mxGeometry>
        </mxCell>
      </root>
    </mxGraphModel>
  </diagram>
</mxfile>
